<?xml version="1.0" encoding="UTF-8" standalone="no" ?>
<!DOCTYPE svg PUBLIC "-//W3C//DTD SVG 1.1//EN" "http://www.w3.org/Graphics/SVG/1.1/DTD/svg11.dtd">
<svg xmlns="http://www.w3.org/2000/svg" xmlns:xlink="http://www.w3.org/1999/xlink" version="1.1" width="1080" height="1080" viewBox="0 0 1080 1080" xml:space="preserve">
<desc>Created with Fabric.js 5.2.4</desc>
<defs>
</defs>
<rect x="0" y="0" width="100%" height="100%" fill="transparent"></rect>
<g transform="matrix(1 0 0 1 540 540)" id="776784a8-e277-4379-8a0e-16e9efc59b01"  >
<rect style="stroke: none; stroke-width: 1; stroke-dasharray: none; stroke-linecap: butt; stroke-dashoffset: 0; stroke-linejoin: miter; stroke-miterlimit: 4; fill: rgb(255,255,255); fill-rule: nonzero; opacity: 1; visibility: hidden;" vector-effect="non-scaling-stroke"  x="-540" y="-540" rx="0" ry="0" width="1080" height="1080" />
</g>
<g transform="matrix(1 0 0 1 540 540)" id="40e7e50b-61e5-4a9c-b1e6-054de07ffda8"  >
</g>
<g transform="matrix(45 0 0 45 540 540)"  >
<path style="stroke: rgb(41,134,141); stroke-width: 1.5; stroke-dasharray: none; stroke-linecap: round; stroke-dashoffset: 0; stroke-linejoin: round; stroke-miterlimit: 4; fill: rgb(41,134,141); fill-rule: nonzero; opacity: 1;"  transform=" translate(-12, -11.89)" d="M 11.48 3.499 C 11.566504277500991 3.2879901876708844 11.771947087444302 3.1501759836379337 12 3.1501759836379337 C 12.228052912555698 3.1501759836379337 12.433495722499009 3.2879901876708844 12.52 3.499 L 14.645 8.61 C 14.726099491918882 8.804983136274622 14.909493895974 8.938185387640972 15.12 8.955 L 20.637999999999998 9.397 C 21.136999999999997 9.437 21.339 10.06 20.959 10.385 L 16.755 13.987 C 16.59487754375855 14.123977521728198 16.524650196402852 14.338904073800304 16.573 14.544 L 17.858 19.929000000000002 C 17.91081503833207 20.149931855512275 17.825436613236405 20.380934025168926 17.64163195535105 20.51441121720472 C 17.457827297465688 20.647888409240515 17.211743296135506 20.657591096869304 17.018 20.539 L 12.293000000000001 17.654000000000003 C 12.113059519310013 17.54433255330166 11.886940480689988 17.54433255330166 11.707 17.654000000000003 L 6.982 20.54 C 6.788256703864496 20.6585910968693 6.542172702534312 20.648888409240513 6.358368044648954 20.51541121720472 C 6.174563386763596 20.381934025168924 6.089184961667931 20.150931855512273 6.142 19.93 L 7.4270000000000005 14.544 C 7.47558706433069 14.338894131923334 7.405319811818199 14.12384545253071 7.245 13.987 L 3.0410000000000004 10.385 C 2.8688607533938084 10.236984187808579 2.8024652007047397 10.000061402401448 2.872615870333207 9.784145945725667 C 2.9427665399616743 9.568230489049887 3.135735615080477 9.415574956199768 3.362 9.397 L 8.88 8.955 C 9.090506104026 8.938185387640972 9.273900508081118 8.804983136274622 9.355 8.61 L 11.48 3.5 z" stroke-linecap="round" />
</g>
<g transform="matrix(0 0 0 0 0 0)"  >
<g style=""   >
</g>
</g>
<g transform="matrix(0 0 0 0 0 0)"  >
<g style=""   >
</g>
</g>
<g transform="matrix(0 0 0 0 0 0)"  >
<g style=""   >
</g>
</g>
<g transform="matrix(0 0 0 0 0 0)"  >
<g style=""   >
</g>
</g>
<g transform="matrix(NaN NaN NaN NaN 0 0)"  >
<g style=""   >
</g>
</g>
<g transform="matrix(NaN NaN NaN NaN 0 0)"  >
<g style=""   >
</g>
</g>
<g transform="matrix(NaN NaN NaN NaN 0 0)"  >
<g style=""   >
</g>
</g>
<g transform="matrix(NaN NaN NaN NaN 0 0)"  >
<g style=""   >
</g>
</g>
</svg>